<svg width="50" height="50" viewBox="0 0 50 50" fill="none" xmlns="http://www.w3.org/2000/svg">
<rect width="50" height="50" fill="#E5E5E5"/>
<g clip-path="url(#clip0)">
<rect width="1920" height="7176" transform="translate(-1710 -3067)" fill="white"/>
<path d="M50 25C50 38.8071 38.8071 50 25 50C11.1929 50 0 38.8071 0 25C0 11.1929 11.1929 0 25 0C38.8071 0 50 11.1929 50 25Z" fill="#ECECEC"/>
<path d="M50 25C50 38.8071 38.8071 50 25 50C11.1929 50 0 38.8071 0 25C0 11.1929 11.1929 0 25 0C38.8071 0 50 11.1929 50 25Z" stroke="black"/>
<path d="M33.3333 23.3333L25 31.6667L16.6667 23.3333" stroke="black"/>
</g>
<defs>
<clipPath id="clip0">
<rect width="1920" height="7176" fill="white" transform="translate(-1710 -3067)"/>
</clipPath>
</defs>
</svg>
